<?xml version="1.0" standalone="no"?><!DOCTYPE svg PUBLIC "-//W3C//DTD SVG 1.1//EN" "http://www.w3.org/Graphics/SVG/1.1/DTD/svg11.dtd"><svg t="1591840900320" class="icon" viewBox="0 0 1024 1024" version="1.1" xmlns="http://www.w3.org/2000/svg" p-id="2870" xmlns:xlink="http://www.w3.org/1999/xlink" width="200" height="200"><defs><style type="text/css"></style></defs><path d="M276.658 358.931h476.213V302.24H276.658v56.692z m0 181.415h476.213v-56.692H276.658v56.692z m0 175.745h476.213V659.4H276.658v56.692zM333.35 64.133H214.297c-68.03 0-119.053 51.023-119.053 119.053v657.628c0 68.03 51.022 119.053 119.053 119.053h595.266c68.03 0 119.054-51.023 119.054-119.053V183.186c0-68.03-51.023-119.053-119.054-119.053H696.18v56.692h113.384c34.016 0 62.362 28.346 62.362 62.361v657.628c0 34.015-28.346 62.361-62.362 62.361H214.297c-34.015 0-62.361-28.346-62.361-62.361V183.186c0-34.015 28.346-62.361 62.36-62.361H333.35V64.133z m62.361 56.692h238.107V64.133H395.711z" p-id="2871"></path></svg>